<svg id="svg" version="1.1" xmlns="http://www.w3.org/2000/svg" xmlns:xlink="http://www.w3.org/1999/xlink" width="400" height="44.49938195302843" viewBox="0, 0, 400,44.49938195302843"><g id="svgg"><path id="path0" d="M75.076 7.787 C 72.941 11.236,73.246 18.222,75.665 21.261 C 76.647 22.495,76.647 22.493,75.665 20.272 C 74.315 17.217,74.300 10.977,75.636 8.035 C 76.814 5.438,76.591 5.340,75.076 7.787 M389.912 9.226 C 390.294 10.493,390.606 12.682,390.606 14.091 C 390.606 15.501,390.294 17.690,389.912 18.957 C 389.048 21.831,389.365 21.921,390.619 19.159 C 392.157 15.771,391.306 6.922,389.442 6.922 C 389.320 6.922,389.531 7.959,389.912 9.226 M134.369 9.311 C 134.779 9.571,134.884 10.251,134.676 11.292 C 134.332 13.012,133.747 13.659,133.256 12.863 C 132.686 11.941,130.240 12.328,129.123 13.518 C 125.713 17.147,127.562 21.896,131.553 19.760 C 132.212 19.407,132.509 19.407,132.509 19.760 C 132.509 20.042,133.121 20.269,133.869 20.264 C 134.904 20.259,135.054 20.146,134.499 19.795 C 133.867 19.396,133.941 18.637,135.051 14.117 L 136.333 8.900 135.039 8.907 C 134.200 8.912,133.964 9.054,134.369 9.311 M293.084 9.311 C 293.493 9.571,293.599 10.251,293.391 11.292 C 293.047 13.012,292.462 13.659,291.970 12.863 C 291.400 11.941,288.955 12.328,287.837 13.518 C 284.427 17.147,286.276 21.896,290.267 19.760 C 290.927 19.407,291.224 19.407,291.224 19.760 C 291.224 20.042,291.836 20.269,292.583 20.264 C 293.618 20.259,293.769 20.146,293.214 19.795 C 292.582 19.396,292.655 18.637,293.766 14.117 L 295.048 8.900 293.754 8.907 C 292.914 8.912,292.679 9.054,293.084 9.311 M338.104 9.328 C 338.765 9.747,338.712 10.062,336.672 17.889 C 336.404 18.920,335.827 19.806,335.342 19.933 C 334.786 20.079,334.927 20.177,335.748 20.215 C 336.441 20.246,337.251 20.030,337.546 19.734 C 337.933 19.347,338.177 19.347,338.416 19.734 C 339.742 21.880,344.129 18.601,344.129 15.464 C 344.129 12.652,341.561 11.171,339.778 12.954 C 339.080 13.651,339.056 13.262,339.638 10.754 C 340.053 8.969,340.020 8.900,338.761 8.907 C 337.870 8.913,337.661 9.047,338.104 9.328 M82.942 9.722 C 83.372 9.895,83.562 11.346,83.568 14.504 C 83.574 18.499,84.063 20.957,84.711 20.258 C 84.830 20.130,86.010 18.022,87.334 15.575 L 89.740 11.125 89.883 15.698 C 90.067 21.638,90.543 21.566,93.909 15.092 C 95.386 12.251,96.943 9.833,97.370 9.718 C 97.797 9.603,97.367 9.501,96.415 9.491 C 95.464 9.481,94.957 9.583,95.290 9.717 C 95.709 9.887,95.268 11.204,93.855 14.005 C 92.733 16.228,91.754 17.824,91.679 17.553 C 91.605 17.281,91.397 15.334,91.218 13.226 C 90.809 8.421,90.585 8.445,87.777 13.597 C 86.517 15.909,85.386 17.800,85.265 17.800 C 84.483 17.800,85.110 9.944,85.909 9.735 C 86.384 9.611,85.773 9.501,84.549 9.491 C 83.325 9.481,82.602 9.585,82.942 9.722 M139.576 9.739 C 140.124 9.882,140.371 10.284,140.223 10.794 C 140.092 11.248,139.749 12.565,139.461 13.721 C 138.109 19.141,137.887 19.720,137.073 19.933 C 136.603 20.056,137.553 20.178,139.184 20.204 C 144.580 20.288,147.711 18.020,148.201 13.669 C 148.559 10.491,146.972 9.374,142.208 9.452 C 140.273 9.483,139.088 9.613,139.576 9.739 M174.138 10.012 C 174.586 10.367,175.051 11.788,175.232 13.350 C 176.228 21.947,176.217 21.944,180.450 15.092 C 182.207 12.248,183.987 9.829,184.405 9.715 C 184.824 9.602,184.388 9.487,183.436 9.459 C 182.444 9.431,181.963 9.573,182.309 9.793 C 182.742 10.068,182.169 11.339,180.282 14.291 C 177.389 18.817,177.300 18.800,176.747 13.628 C 176.467 11.016,176.538 10.177,177.069 9.841 C 177.517 9.557,176.999 9.407,175.554 9.402 C 173.712 9.396,173.484 9.494,174.138 10.012 M241.656 9.722 C 242.087 9.895,242.277 11.346,242.282 14.504 C 242.289 18.499,242.777 20.957,243.425 20.258 C 243.544 20.130,244.724 18.022,246.048 15.575 L 248.455 11.125 248.597 15.698 C 248.782 21.638,249.257 21.566,252.624 15.092 C 254.100 12.251,255.658 9.833,256.085 9.718 C 256.511 9.603,256.082 9.501,255.130 9.491 C 254.178 9.481,253.672 9.583,254.004 9.717 C 254.424 9.887,253.983 11.204,252.569 14.005 C 251.447 16.228,250.468 17.824,250.394 17.553 C 250.319 17.281,250.112 15.334,249.933 13.226 C 249.524 8.421,249.300 8.445,246.491 13.597 C 245.231 15.909,244.101 17.800,243.979 17.800 C 243.197 17.800,243.824 9.944,244.623 9.735 C 245.099 9.611,244.487 9.501,243.263 9.491 C 242.040 9.481,241.316 9.585,241.656 9.722 M298.290 9.739 C 298.838 9.882,299.085 10.284,298.938 10.794 C 298.806 11.248,298.463 12.565,298.175 13.721 C 296.824 19.141,296.602 19.720,295.787 19.933 C 295.317 20.056,296.044 20.157,297.404 20.157 C 298.764 20.157,299.487 20.055,299.011 19.931 C 297.987 19.663,298.002 19.799,298.699 17.030 C 299.616 13.388,301.945 13.997,303.061 18.171 C 303.548 19.991,303.802 20.271,304.963 20.264 C 305.975 20.259,306.127 20.145,305.583 19.800 C 304.581 19.167,303.027 14.339,303.825 14.339 C 304.715 14.339,306.057 12.666,306.057 11.556 C 306.057 9.819,305.057 9.391,301.137 9.452 C 299.084 9.483,297.803 9.613,298.290 9.739 M347.191 10.012 C 347.639 10.367,348.105 11.788,348.285 13.350 C 349.281 21.947,349.270 21.944,353.503 15.092 C 355.260 12.248,357.040 9.829,357.459 9.715 C 357.877 9.602,357.441 9.487,356.489 9.459 C 355.498 9.431,355.016 9.573,355.362 9.793 C 355.795 10.068,355.222 11.339,353.335 14.291 C 350.442 18.817,350.354 18.800,349.800 13.628 C 349.520 11.016,349.591 10.177,350.122 9.841 C 350.570 9.557,350.052 9.407,348.608 9.402 C 346.766 9.396,346.537 9.494,347.191 10.012 M115.039 10.218 C 114.858 10.400,114.710 10.956,114.710 11.454 C 114.710 11.985,114.351 12.364,113.844 12.369 C 113.211 12.374,113.148 12.484,113.611 12.777 C 114.121 13.101,114.100 13.792,113.505 16.347 C 113.098 18.089,112.953 19.702,113.183 19.932 C 113.981 20.730,116.423 20.085,116.578 19.036 C 116.711 18.132,116.678 18.121,116.186 18.912 C 115.891 19.388,115.327 19.778,114.932 19.778 C 113.083 19.778,114.994 13.215,116.967 12.790 L 118.418 12.478 117.049 12.419 C 115.844 12.368,115.717 12.212,115.990 11.125 C 116.281 9.964,115.776 9.482,115.039 10.218 M145.749 10.658 C 147.697 12.023,146.758 16.864,144.222 18.526 C 142.904 19.390,139.431 20.135,139.431 19.554 C 139.431 19.164,141.322 11.491,141.660 10.507 C 141.957 9.643,144.431 9.735,145.749 10.658 M194.149 10.218 C 193.968 10.400,193.820 10.956,193.820 11.454 C 193.820 11.985,193.461 12.364,192.954 12.369 C 192.321 12.374,192.258 12.484,192.721 12.777 C 193.231 13.101,193.211 13.792,192.615 16.347 C 192.208 18.089,192.063 19.702,192.293 19.932 C 193.091 20.730,195.533 20.085,195.688 19.036 C 195.821 18.132,195.788 18.121,195.296 18.912 C 195.001 19.388,194.437 19.778,194.042 19.778 C 192.193 19.778,194.104 13.215,196.077 12.790 L 197.528 12.478 196.159 12.419 C 194.954 12.368,194.827 12.212,195.100 11.125 C 195.391 9.964,194.886 9.482,194.149 10.218 M273.754 10.218 C 273.572 10.400,273.424 10.956,273.424 11.454 C 273.424 11.985,273.065 12.364,272.559 12.369 C 271.925 12.374,271.863 12.484,272.326 12.777 C 272.836 13.101,272.815 13.792,272.219 16.347 C 271.813 18.089,271.668 19.702,271.897 19.932 C 272.695 20.730,275.137 20.085,275.292 19.036 C 275.426 18.132,275.392 18.121,274.901 18.912 C 274.605 19.388,274.041 19.778,273.647 19.778 C 271.797 19.778,273.708 13.215,275.681 12.790 L 277.132 12.478 275.763 12.419 C 274.559 12.368,274.431 12.212,274.704 11.125 C 274.996 9.964,274.490 9.482,273.754 10.218 M304.490 11.289 C 304.727 12.964,303.256 14.339,301.228 14.339 C 299.555 14.339,299.177 12.315,300.462 10.236 C 301.064 9.262,304.323 10.114,304.490 11.289 M367.202 10.218 C 367.021 10.400,366.873 10.956,366.873 11.454 C 366.873 11.985,366.514 12.364,366.007 12.369 C 365.374 12.374,365.311 12.484,365.774 12.777 C 366.284 13.101,366.264 13.792,365.668 16.347 C 365.261 18.089,365.116 19.702,365.346 19.932 C 366.144 20.730,368.586 20.085,368.741 19.036 C 368.874 18.132,368.841 18.121,368.350 18.912 C 368.054 19.388,367.490 19.778,367.095 19.778 C 365.246 19.778,367.157 13.215,369.130 12.790 L 370.581 12.478 369.212 12.419 C 368.007 12.368,367.880 12.212,368.153 11.125 C 368.444 9.964,367.939 9.482,367.202 10.218 M97.503 12.954 C 96.517 13.941,96.838 14.557,97.858 13.634 C 99.151 12.464,101.068 12.790,101.270 14.215 C 101.404 15.158,101.201 15.328,99.934 15.328 C 97.780 15.328,95.942 16.309,95.608 17.636 C 95.057 19.835,95.619 20.241,99.138 20.181 C 101.169 20.146,102.225 19.950,101.936 19.661 C 101.647 19.372,101.721 18.252,102.133 16.690 C 103.121 12.946,100.016 10.441,97.503 12.954 M106.133 13.265 C 104.845 14.689,105.139 15.799,107.012 16.581 C 109.077 17.444,109.546 18.109,108.758 19.058 C 107.950 20.032,105.365 19.988,104.984 18.994 C 104.750 18.385,104.596 18.353,104.290 18.847 C 103.650 19.882,104.255 20.272,106.504 20.272 C 110.277 20.272,111.815 16.906,108.536 15.824 C 106.473 15.143,106.014 14.543,106.816 13.575 C 107.618 12.610,109.607 12.661,110.167 13.661 C 110.475 14.211,110.726 14.289,110.962 13.908 C 111.991 12.243,107.589 11.657,106.133 13.265 M120.414 13.473 C 117.603 15.932,117.983 19.885,121.060 20.182 C 122.754 20.346,125.093 19.195,125.093 18.197 C 125.093 17.884,124.558 18.129,123.905 18.743 C 122.581 19.987,120.780 19.982,119.997 18.732 C 118.956 17.071,119.925 16.316,123.099 16.316 C 125.784 16.316,126.082 16.214,126.082 15.295 C 126.082 12.299,122.920 11.282,120.414 13.473 M151.564 13.473 C 148.752 15.932,149.133 19.885,152.209 20.182 C 153.904 20.346,156.242 19.195,156.242 18.197 C 156.242 17.884,155.708 18.129,155.055 18.743 C 153.730 19.987,151.929 19.982,151.146 18.732 C 150.105 17.071,151.075 16.316,154.249 16.316 C 156.933 16.316,157.231 16.214,157.231 15.295 C 157.231 12.299,154.070 11.282,151.564 13.473 M159.657 12.816 C 160.583 13.402,159.452 19.088,158.273 19.777 C 157.682 20.123,157.986 20.244,159.456 20.249 C 160.748 20.254,161.201 20.109,160.763 19.832 C 159.543 19.059,161.274 13.802,162.962 13.154 C 164.117 12.711,165.087 13.675,164.792 14.975 C 163.912 18.852,163.556 19.731,162.784 19.933 C 162.313 20.056,162.930 20.165,164.153 20.176 C 165.377 20.186,166.100 20.082,165.760 19.944 C 164.418 19.403,165.634 14.687,167.417 13.519 C 169.825 11.941,170.397 16.995,168.073 19.319 C 167.132 20.260,167.143 20.272,168.949 20.272 C 170.266 20.272,170.628 20.121,170.241 19.735 C 169.855 19.348,169.894 18.482,170.381 16.644 C 171.403 12.785,169.272 10.509,167.094 13.134 C 166.512 13.835,166.412 13.835,166.020 13.134 C 165.523 12.245,164.026 12.130,162.637 12.873 C 161.978 13.226,161.681 13.226,161.681 12.873 C 161.681 12.591,161.069 12.364,160.321 12.369 C 159.334 12.374,159.152 12.497,159.657 12.816 M184.197 13.473 C 180.590 16.627,182.323 21.155,186.716 20.052 C 189.051 19.466,190.833 14.516,189.271 12.954 C 188.296 11.979,185.589 12.256,184.197 13.473 M199.524 13.473 C 196.713 15.932,197.093 19.885,200.170 20.182 C 201.864 20.346,204.203 19.195,204.203 18.197 C 204.203 17.884,203.668 18.129,203.015 18.743 C 201.691 19.987,199.890 19.982,199.107 18.732 C 198.066 17.071,199.035 16.316,202.209 16.316 C 204.894 16.316,205.192 16.214,205.192 15.295 C 205.192 12.299,202.030 11.282,199.524 13.473 M207.988 13.265 C 206.699 14.689,206.994 15.799,208.866 16.581 C 210.931 17.444,211.400 18.109,210.612 19.058 C 209.804 20.032,207.219 19.988,206.838 18.994 C 206.604 18.385,206.450 18.353,206.144 18.847 C 205.504 19.882,206.110 20.272,208.358 20.272 C 212.131 20.272,213.669 16.906,210.390 15.824 C 208.327 15.143,207.868 14.543,208.671 13.575 C 209.472 12.610,211.461 12.661,212.021 13.661 C 212.329 14.211,212.580 14.289,212.816 13.908 C 213.845 12.243,209.443 11.657,207.988 13.265 M256.218 12.954 C 255.231 13.941,255.553 14.557,256.572 13.634 C 257.865 12.464,259.783 12.790,259.985 14.215 C 260.119 15.158,259.915 15.328,258.649 15.328 C 256.495 15.328,254.656 16.309,254.323 17.636 C 253.771 19.835,254.333 20.241,257.852 20.181 C 259.884 20.146,260.939 19.950,260.650 19.661 C 260.361 19.372,260.436 18.252,260.848 16.690 C 261.835 12.946,258.731 10.441,256.218 12.954 M264.848 13.265 C 263.560 14.689,263.854 15.799,265.726 16.581 C 267.791 17.444,268.260 18.109,267.473 19.058 C 266.664 20.032,264.080 19.988,263.698 18.994 C 263.464 18.385,263.310 18.353,263.005 18.847 C 262.365 19.882,262.970 20.272,265.218 20.272 C 268.992 20.272,270.529 16.906,267.250 15.824 C 265.187 15.143,264.728 14.543,265.531 13.575 C 266.332 12.610,268.321 12.661,268.881 13.661 C 269.189 14.211,269.441 14.289,269.676 13.908 C 270.705 12.243,266.303 11.657,264.848 13.265 M279.129 13.473 C 276.317 15.932,276.698 19.885,279.774 20.182 C 281.469 20.346,283.807 19.195,283.807 18.197 C 283.807 17.884,283.273 18.129,282.619 18.743 C 281.295 19.987,279.494 19.982,278.711 18.732 C 277.670 17.071,278.640 16.316,281.814 16.316 C 284.498 16.316,284.796 16.214,284.796 15.295 C 284.796 12.299,281.635 11.282,279.129 13.473 M309.290 13.473 C 306.478 15.932,306.858 19.885,309.935 20.182 C 311.630 20.346,313.968 19.195,313.968 18.197 C 313.968 17.884,313.433 18.129,312.780 18.743 C 311.456 19.987,309.655 19.982,308.872 18.732 C 307.831 17.071,308.800 16.316,311.975 16.316 C 314.659 16.316,314.957 16.214,314.957 15.295 C 314.957 12.299,311.795 11.282,309.290 13.473 M317.365 12.806 C 318.306 13.401,316.141 22.605,314.987 22.916 C 314.563 23.030,315.105 23.146,316.193 23.174 C 317.385 23.204,317.918 23.063,317.536 22.821 C 317.187 22.599,317.020 22.046,317.165 21.592 C 317.310 21.138,317.547 20.395,317.692 19.942 C 317.893 19.314,318.093 19.255,318.533 19.695 C 320.419 21.580,324.351 18.721,324.351 15.464 C 324.351 12.652,321.783 11.171,320.000 12.954 C 319.539 13.416,319.407 13.416,319.407 12.954 C 319.407 12.628,318.795 12.364,318.047 12.369 C 317.085 12.374,316.886 12.502,317.365 12.806 M327.236 12.795 C 327.757 13.124,327.783 13.620,327.363 15.136 C 326.175 19.412,326.999 20.982,329.863 19.901 C 330.655 19.602,331.273 19.567,331.273 19.820 C 331.273 20.069,331.885 20.269,332.633 20.264 C 333.635 20.259,333.807 20.139,333.287 19.810 C 332.623 19.390,333.069 15.690,334.109 12.979 C 334.264 12.573,333.862 12.364,332.933 12.369 C 331.952 12.374,331.726 12.506,332.191 12.801 C 333.131 13.397,331.628 18.564,330.310 19.269 C 327.995 20.508,327.476 19.343,328.554 15.328 C 328.955 13.832,329.286 12.553,329.290 12.485 C 329.293 12.417,328.684 12.364,327.936 12.369 C 327.002 12.374,326.783 12.507,327.236 12.795 M357.250 13.473 C 353.643 16.627,355.377 21.155,359.769 20.052 C 362.104 19.466,363.886 14.516,362.324 12.954 C 361.349 11.979,358.642 12.256,357.250 13.473 M372.578 13.473 C 369.766 15.932,370.146 19.885,373.223 20.182 C 374.918 20.346,377.256 19.195,377.256 18.197 C 377.256 17.884,376.721 18.129,376.068 18.743 C 374.744 19.987,372.943 19.982,372.160 18.732 C 371.119 17.071,372.088 16.316,375.263 16.316 C 377.947 16.316,378.245 16.214,378.245 15.295 C 378.245 12.299,375.083 11.282,372.578 13.473 M381.041 13.265 C 379.753 14.689,380.047 15.799,381.919 16.581 C 383.984 17.444,384.453 18.109,383.666 19.058 C 382.857 20.032,380.272 19.988,379.891 18.994 C 379.657 18.385,379.503 18.353,379.197 18.847 C 378.558 19.882,379.163 20.272,381.411 20.272 C 385.184 20.272,386.722 16.906,383.443 15.824 C 381.380 15.143,380.921 14.543,381.724 13.575 C 382.525 12.610,384.514 12.661,385.074 13.661 C 385.382 14.211,385.634 14.289,385.869 13.908 C 386.898 12.243,382.496 11.657,381.041 13.265 M124.508 14.462 C 124.658 15.770,124.578 15.822,122.406 15.822 C 119.920 15.822,119.630 15.352,121.168 13.814 C 122.592 12.390,124.307 12.723,124.508 14.462 M133.404 14.678 C 133.714 17.882,130.897 20.849,129.177 19.130 C 127.529 17.481,129.893 12.624,132.184 12.951 C 132.981 13.064,133.289 13.501,133.404 14.678 M155.657 14.462 C 155.808 15.770,155.727 15.822,153.556 15.822 C 151.070 15.822,150.779 15.352,152.317 13.814 C 153.741 12.390,155.457 12.723,155.657 14.462 M188.289 13.663 C 188.875 14.710,188.214 17.607,187.112 18.825 C 185.862 20.206,184.023 20.069,183.646 18.568 C 182.782 15.125,186.757 10.926,188.289 13.663 M203.618 14.462 C 203.768 15.770,203.688 15.822,201.516 15.822 C 199.030 15.822,198.740 15.352,200.278 13.814 C 201.702 12.390,203.417 12.723,203.618 14.462 M283.222 14.462 C 283.372 15.770,283.292 15.822,281.121 15.822 C 278.635 15.822,278.344 15.352,279.882 13.814 C 281.306 12.390,283.022 12.723,283.222 14.462 M292.118 14.678 C 292.428 17.882,289.611 20.849,287.892 19.130 C 286.243 17.481,288.607 12.624,290.899 12.951 C 291.696 13.064,292.004 13.501,292.118 14.678 M313.383 14.462 C 313.533 15.770,313.453 15.822,311.281 15.822 C 308.795 15.822,308.505 15.352,310.043 13.814 C 311.467 12.390,313.182 12.723,313.383 14.462 M322.881 13.613 C 324.251 15.264,321.615 20.094,319.567 19.683 C 318.843 19.538,318.671 19.046,318.695 17.186 C 318.740 13.685,321.199 11.586,322.881 13.613 M342.658 13.613 C 344.029 15.264,341.392 20.094,339.345 19.683 C 338.620 19.538,338.448 19.046,338.472 17.186 C 338.518 13.685,340.976 11.586,342.658 13.613 M361.342 13.663 C 361.928 14.710,361.267 17.607,360.165 18.825 C 358.915 20.206,357.076 20.069,356.699 18.568 C 355.835 15.125,359.810 10.926,361.342 13.663 M376.671 14.462 C 376.821 15.770,376.741 15.822,374.569 15.822 C 372.083 15.822,371.793 15.352,373.331 13.814 C 374.755 12.390,376.470 12.723,376.671 14.462 M100.865 16.981 C 100.865 19.539,97.332 20.756,96.986 18.317 C 96.790 16.928,98.003 15.822,99.724 15.822 C 100.592 15.822,100.865 16.100,100.865 16.981 M223.115 16.185 C 224.407 16.287,226.520 16.287,227.812 16.185 C 229.104 16.084,228.047 16.000,225.464 16.000 C 222.880 16.000,221.823 16.084,223.115 16.185 M259.580 16.981 C 259.580 19.539,256.047 20.756,255.701 18.317 C 255.504 16.928,256.718 15.822,258.438 15.822 C 259.306 15.822,259.580 16.100,259.580 16.981 M12.963 20.055 C 10.730 21.618,9.536 26.149,10.977 27.590 C 11.695 28.308,14.654 28.379,15.080 27.689 C 15.761 26.587,16.231 27.293,15.744 28.688 C 14.934 31.012,11.250 32.201,10.546 30.366 C 10.312 29.757,10.158 29.725,9.853 30.219 C 9.197 31.281,9.833 31.644,12.346 31.644 C 15.602 31.644,16.797 30.193,18.045 24.730 C 18.742 21.680,19.213 20.563,19.875 20.390 C 20.365 20.262,20.766 19.960,20.766 19.720 C 20.766 19.100,18.598 19.177,17.954 19.821 C 17.567 20.208,17.324 20.208,17.085 19.821 C 16.597 19.031,14.232 19.166,12.963 20.055 M23.609 19.624 C 23.133 19.748,22.744 20.173,22.744 20.567 C 22.744 21.169,22.942 21.154,23.977 20.476 C 25.711 19.339,27.689 19.894,27.689 21.517 C 27.689 22.604,27.477 22.745,25.834 22.751 C 22.305 22.765,19.630 25.476,21.236 27.412 C 21.993 28.323,24.765 28.436,25.612 27.590 C 26.073 27.128,26.205 27.128,26.205 27.590 C 26.205 27.916,26.761 28.183,27.441 28.183 C 28.644 28.183,29.164 27.442,28.194 27.112 C 27.897 27.010,27.990 25.900,28.435 24.227 C 29.332 20.862,29.334 20.999,28.395 20.060 C 27.659 19.324,25.508 19.128,23.609 19.624 M31.891 19.778 C 31.723 20.049,31.933 20.272,32.356 20.272 C 33.326 20.272,33.339 20.112,31.904 25.701 C 31.195 28.466,30.349 30.645,29.842 31.016 C 29.100 31.558,29.283 31.643,31.179 31.636 C 32.627 31.631,33.142 31.482,32.691 31.196 C 32.204 30.887,32.104 30.252,32.343 28.979 C 32.672 27.222,33.269 26.718,33.869 27.689 C 35.105 29.688,39.063 27.221,40.083 23.816 C 41.102 20.415,37.993 17.678,35.637 19.901 C 35.112 20.396,34.936 20.396,34.755 19.901 C 34.485 19.165,32.327 19.072,31.891 19.778 M17.305 22.036 C 17.305 25.408,14.366 28.653,12.623 27.206 C 11.672 26.417,11.658 24.694,12.586 22.473 C 13.797 19.575,17.305 19.250,17.305 22.036 M38.309 20.580 C 39.579 21.850,38.148 26.680,36.290 27.393 C 33.049 28.636,32.312 23.514,35.354 20.890 C 36.891 19.564,37.255 19.526,38.309 20.580 M51.298 21.625 C 52.726 21.725,55.062 21.725,56.489 21.625 C 57.917 21.525,56.749 21.444,53.894 21.444 C 51.038 21.444,49.870 21.525,51.298 21.625 M27.194 24.161 C 27.194 25.448,25.326 27.689,24.252 27.689 C 22.989 27.689,22.108 26.442,22.500 25.208 C 23.090 23.348,27.194 22.433,27.194 24.161 M150.927 24.104 C 195.729 24.173,269.042 24.173,313.844 24.104 C 358.646 24.034,321.990 23.977,232.386 23.977 C 142.781 23.977,106.125 24.034,150.927 24.104 M51.298 25.086 C 52.726 25.186,55.062 25.186,56.489 25.086 C 57.917 24.987,56.749 24.905,53.894 24.905 C 51.038 24.905,49.870 24.987,51.298 25.086 M229.823 26.633 C 230.483 27.052,230.430 27.367,228.390 35.194 C 228.122 36.225,227.545 37.111,227.061 37.238 C 226.590 37.362,227.206 37.485,228.430 37.512 C 229.917 37.546,230.423 37.415,229.955 37.119 C 229.363 36.744,229.446 35.874,230.497 31.441 L 231.739 26.205 230.455 26.213 C 229.577 26.218,229.377 26.351,229.823 26.633 M195.044 27.726 C 194.865 28.290,194.859 28.892,195.030 29.064 C 195.202 29.235,195.470 28.885,195.627 28.285 C 195.853 27.422,196.274 27.194,197.643 27.194 C 199.194 27.194,199.344 27.309,199.082 28.307 C 198.922 28.918,198.405 31.056,197.933 33.058 C 197.292 35.773,196.818 36.800,196.065 37.106 C 195.343 37.398,195.759 37.507,197.528 37.489 C 198.888 37.474,199.611 37.361,199.135 37.236 C 198.074 36.959,198.057 37.273,199.423 31.891 L 200.551 27.441 202.421 27.285 C 204.146 27.141,204.264 27.212,203.946 28.212 C 203.713 28.946,203.779 29.187,204.150 28.957 C 204.451 28.771,204.697 28.187,204.697 27.659 C 204.697 26.134,195.529 26.198,195.044 27.726 M233.965 27.318 C 234.413 27.673,234.878 29.093,235.059 30.655 C 236.055 39.252,236.044 39.249,240.277 32.397 C 242.034 29.553,243.814 27.134,244.232 27.020 C 244.651 26.907,244.215 26.792,243.263 26.765 C 242.271 26.736,241.790 26.878,242.136 27.098 C 242.569 27.373,241.996 28.645,240.109 31.596 C 237.216 36.122,237.127 36.105,236.573 30.933 C 236.294 28.321,236.365 27.483,236.896 27.146 C 237.344 26.863,236.826 26.712,235.381 26.707 C 233.539 26.701,233.311 26.799,233.965 27.318 M215.410 27.524 C 215.229 27.705,215.080 28.261,215.080 28.760 C 215.080 29.291,214.722 29.669,214.215 29.674 C 213.581 29.679,213.519 29.789,213.982 30.083 C 214.492 30.406,214.471 31.097,213.875 33.652 C 213.469 35.394,213.324 37.008,213.554 37.237 C 214.351 38.035,216.794 37.390,216.948 36.341 C 217.082 35.437,217.048 35.427,216.557 36.218 C 216.262 36.693,215.697 37.083,215.303 37.083 C 213.454 37.083,215.364 30.520,217.337 30.096 L 218.789 29.783 217.420 29.725 C 216.215 29.673,216.088 29.518,216.361 28.430 C 216.652 27.269,216.147 26.787,215.410 27.524 M253.976 27.524 C 253.795 27.705,253.646 28.261,253.646 28.760 C 253.646 29.291,253.288 29.669,252.781 29.674 C 252.148 29.679,252.085 29.789,252.548 30.083 C 253.058 30.406,253.037 31.097,252.441 33.652 C 252.035 35.394,251.890 37.008,252.120 37.237 C 252.918 38.035,255.360 37.390,255.515 36.341 C 255.648 35.437,255.615 35.427,255.123 36.218 C 254.828 36.693,254.264 37.083,253.869 37.083 C 252.020 37.083,253.930 30.520,255.904 30.096 L 257.355 29.783 255.986 29.725 C 254.781 29.673,254.654 29.518,254.927 28.430 C 255.218 27.269,254.713 26.787,253.976 27.524 M205.458 30.779 C 201.851 33.932,203.584 38.460,207.977 37.358 C 210.312 36.772,212.094 31.822,210.532 30.260 C 209.557 29.285,206.850 29.562,205.458 30.779 M220.618 30.260 C 219.632 31.246,219.953 31.862,220.973 30.939 C 222.266 29.769,224.183 30.096,224.385 31.520 C 224.519 32.464,224.316 32.633,223.049 32.633 C 220.895 32.633,219.057 33.614,218.723 34.942 C 218.172 37.141,218.734 37.546,222.253 37.486 C 224.284 37.451,225.340 37.255,225.051 36.967 C 224.762 36.678,224.836 35.557,225.248 33.996 C 226.236 30.251,223.131 27.746,220.618 30.260 M244.024 30.779 C 240.417 33.932,242.150 38.460,246.543 37.358 C 248.878 36.772,250.660 31.822,249.098 30.260 C 248.123 29.285,245.416 29.562,244.024 30.779 M259.351 30.779 C 256.540 33.237,256.920 37.190,259.997 37.488 C 261.691 37.651,264.030 36.500,264.030 35.502 C 264.030 35.189,263.495 35.435,262.842 36.048 C 261.518 37.292,259.717 37.287,258.933 36.038 C 257.893 34.376,258.862 33.622,262.036 33.622 C 264.721 33.622,265.019 33.520,265.019 32.600 C 265.019 29.604,261.857 28.588,259.351 30.779 M267.815 30.570 C 266.526 31.994,266.820 33.104,268.693 33.887 C 270.758 34.749,271.227 35.414,270.439 36.363 C 269.631 37.337,267.046 37.294,266.665 36.300 C 266.431 35.691,266.277 35.658,265.971 36.152 C 265.331 37.188,265.937 37.577,268.185 37.577 C 271.958 37.577,273.496 34.212,270.217 33.130 C 268.154 32.449,267.695 31.848,268.498 30.881 C 269.299 29.915,271.288 29.966,271.848 30.966 C 272.156 31.516,272.407 31.595,272.643 31.213 C 273.672 29.548,269.270 28.962,267.815 30.570 M209.550 30.968 C 210.136 32.015,209.475 34.912,208.373 36.130 C 207.123 37.511,205.284 37.375,204.907 35.873 C 204.043 32.430,208.018 28.231,209.550 30.968 M248.116 30.968 C 248.702 32.015,248.041 34.912,246.939 36.130 C 245.689 37.511,243.850 37.375,243.473 35.873 C 242.609 32.430,246.584 28.231,248.116 30.968 M263.444 31.768 C 263.595 33.075,263.514 33.127,261.343 33.127 C 258.857 33.127,258.567 32.657,260.105 31.119 C 261.529 29.695,263.244 30.028,263.444 31.768 M223.980 34.287 C 223.980 36.845,220.447 38.061,220.101 35.622 C 219.905 34.233,221.118 33.127,222.839 33.127 C 223.707 33.127,223.980 33.405,223.980 34.287 " stroke="none" fill="#000000" fill-rule="evenodd"></path></g></svg>