<svg id="svg" version="1.1" xmlns="http://www.w3.org/2000/svg" xmlns:xlink="http://www.w3.org/1999/xlink" width="400" height="67.33668341708542" viewBox="0, 0, 400,67.33668341708542"><g id="svgg"><path id="path0" d="M79.146 8.581 C 78.593 8.797,78.423 8.990,78.769 9.010 C 79.858 9.071,79.619 15.949,78.518 16.237 C 78.034 16.363,78.656 16.466,79.899 16.466 C 81.143 16.466,81.774 16.365,81.301 16.240 C 80.600 16.056,80.415 15.294,80.296 12.101 C 80.159 8.417,80.092 8.210,79.146 8.581 M85.025 8.643 C 84.293 9.375,84.231 10.553,84.925 10.553 C 85.201 10.553,85.427 10.085,85.427 9.513 C 85.427 8.723,85.698 8.511,86.553 8.633 C 87.983 8.838,88.288 10.340,87.152 11.595 C 86.382 12.446,86.372 12.563,87.074 12.563 C 88.134 12.563,88.635 14.278,87.950 15.559 C 87.349 16.681,87.889 16.935,88.844 15.980 C 89.730 15.094,89.579 13.189,88.578 12.629 C 87.755 12.168,87.755 12.093,88.578 11.183 C 90.422 9.145,86.982 6.687,85.025 8.643 M144.268 15.010 C 141.189 19.333,141.412 26.903,144.706 29.883 C 145.450 30.557,145.396 30.267,144.419 28.336 C 142.687 24.916,142.705 19.201,144.458 15.904 C 145.866 13.256,145.786 12.878,144.268 15.010 M170.901 15.010 C 167.822 19.333,168.045 26.903,171.339 29.883 C 172.083 30.557,172.029 30.267,171.052 28.336 C 169.321 24.916,169.339 19.201,171.091 15.904 C 172.499 13.256,172.419 12.878,170.901 15.010 M184.082 15.233 C 186.358 18.605,186.540 24.617,184.490 28.715 L 183.394 30.905 184.599 29.468 C 187.937 25.487,187.585 17.548,183.927 14.322 C 182.869 13.388,182.880 13.452,184.082 15.233 M191.117 15.233 C 193.393 18.605,193.575 24.617,191.525 28.715 L 190.429 30.905 191.634 29.468 C 194.972 25.487,194.620 17.548,190.963 14.322 C 189.904 13.388,189.915 13.452,191.117 15.233 M84.162 14.587 C 83.779 15.207,84.786 16.586,85.614 16.575 C 85.942 16.571,85.889 16.383,85.488 16.129 C 85.107 15.888,84.942 15.454,85.120 15.166 C 85.298 14.878,85.229 14.510,84.968 14.348 C 84.706 14.186,84.343 14.294,84.162 14.587 M150.879 14.890 C 152.003 15.221,151.995 15.410,150.649 21.038 C 149.789 24.633,149.283 25.849,148.505 26.187 C 147.838 26.477,148.959 26.587,151.759 26.506 C 162.483 26.195,165.027 14.958,154.426 14.728 C 151.992 14.675,150.396 14.748,150.879 14.890 M359.422 14.919 C 360.528 15.208,360.520 15.375,359.127 20.854 C 358.194 24.524,357.747 25.494,356.753 25.998 C 355.608 26.578,355.676 26.616,357.789 26.586 C 359.033 26.568,359.768 26.440,359.422 26.300 C 358.495 25.926,359.783 17.437,360.943 16.277 C 361.062 16.158,362.153 18.427,363.368 21.319 C 365.749 26.985,365.903 27.085,366.766 23.521 C 367.495 20.510,367.437 19.864,366.636 22.080 L 366.011 23.809 364.056 19.191 C 362.101 14.574,362.100 14.573,360.321 14.631 C 359.343 14.663,358.938 14.793,359.422 14.919 M367.465 15.117 C 368.086 15.479,368.271 16.032,368.090 16.986 L 367.833 18.342 368.358 17.028 C 368.646 16.306,369.383 15.473,369.994 15.178 C 370.962 14.710,370.813 14.638,368.844 14.622 C 367.069 14.607,366.772 14.714,367.465 15.117 M158.291 16.080 C 160.297 18.086,158.781 23.825,155.843 25.344 C 153.660 26.472,150.602 26.415,150.946 25.251 C 151.090 24.768,151.688 22.456,152.276 20.115 C 153.668 14.571,155.532 13.321,158.291 16.080 M178.531 15.382 C 178.729 15.580,178.185 16.171,177.323 16.695 C 175.917 17.550,175.781 17.842,176.007 19.524 C 176.190 20.888,176.001 21.718,175.315 22.565 C 173.592 24.693,174.054 26.083,176.884 27.279 C 179.565 28.411,180.407 29.958,178.103 29.518 C 177.275 29.360,176.982 29.445,177.291 29.753 C 178.171 30.633,180.139 29.984,180.313 28.757 C 180.446 27.821,180.054 27.428,178.147 26.584 C 174.313 24.888,174.467 21.608,178.381 21.608 C 179.493 21.608,180.402 21.382,180.402 21.106 C 180.402 20.829,179.737 20.603,178.924 20.603 C 175.925 20.603,176.781 17.062,179.905 16.543 C 181.201 16.328,181.429 16.164,180.779 15.915 C 178.962 15.218,178.183 15.034,178.531 15.382 M239.497 16.162 C 238.738 17.246,238.836 18.090,239.722 18.090 C 239.979 18.090,240.135 17.591,240.069 16.980 C 239.930 15.684,241.358 15.164,242.486 16.100 C 243.744 17.144,243.296 18.551,240.886 21.127 L 238.556 23.618 241.389 23.618 C 244.003 23.618,244.218 23.531,244.181 22.487 C 244.160 21.866,244.028 21.639,243.888 21.985 C 243.749 22.330,242.806 22.609,241.792 22.603 L 239.950 22.593 242.085 20.803 C 243.482 19.632,244.221 18.604,244.221 17.833 C 244.221 15.259,240.942 14.099,239.497 16.162 M106.002 20.896 C 100.918 28.284,100.918 40.058,106.002 47.446 C 108.259 50.727,108.802 50.300,106.736 46.869 C 102.488 39.815,102.488 28.527,106.736 21.472 C 108.802 18.041,108.259 17.615,106.002 20.896 M126.692 19.310 C 129.281 20.792,128.882 26.131,126.182 26.131 C 123.644 26.131,122.517 22.151,124.450 20.014 C 124.907 19.509,125.037 19.095,124.737 19.095 C 123.877 19.095,122.111 21.630,122.111 22.864 C 122.111 24.793,123.969 26.633,125.916 26.633 C 130.467 26.633,131.082 19.979,126.633 18.870 L 125.377 18.556 126.692 19.310 M229.799 19.598 C 235.625 28.193,235.625 40.149,229.799 48.744 C 229.004 49.917,229.051 49.905,230.508 48.569 C 236.817 42.780,236.817 25.562,230.508 19.773 C 229.051 18.437,229.004 18.425,229.799 19.598 M112.688 19.641 C 113.422 20.066,113.568 20.892,113.568 24.623 C 113.568 28.353,113.422 29.181,112.688 29.608 C 111.998 30.010,112.294 30.120,114.070 30.120 C 115.847 30.120,116.143 30.010,115.452 29.608 C 114.234 28.898,114.208 25.883,115.424 26.350 C 116.224 26.657,116.224 26.620,115.424 25.736 C 114.215 24.400,114.284 20.862,115.536 19.985 C 116.406 19.376,116.271 19.302,114.154 19.221 C 112.355 19.153,112.014 19.251,112.688 19.641 M118.090 20.101 C 118.713 20.723,119.095 21.776,119.095 22.864 C 119.095 23.953,118.713 25.006,118.090 25.628 C 117.426 26.292,117.311 26.633,117.752 26.633 C 118.961 26.633,120.603 24.372,120.603 22.706 C 120.603 21.011,119.137 19.095,117.839 19.095 C 117.253 19.095,117.309 19.319,118.090 20.101 M131.281 19.641 C 132.015 20.066,132.161 20.892,132.161 24.623 C 132.161 28.353,132.015 29.181,131.281 29.608 C 130.591 30.010,130.887 30.120,132.663 30.120 C 134.440 30.120,134.736 30.010,134.045 29.608 C 132.827 28.898,132.801 25.883,134.017 26.350 C 134.817 26.657,134.817 26.620,134.017 25.736 C 132.808 24.400,132.877 20.862,134.129 19.985 C 134.999 19.376,134.864 19.302,132.747 19.221 C 130.948 19.153,130.607 19.251,131.281 19.641 M136.683 20.101 C 137.306 20.723,137.688 21.776,137.688 22.864 C 137.688 23.953,137.306 25.006,136.683 25.628 C 136.019 26.292,135.904 26.633,136.345 26.633 C 137.554 26.633,139.196 24.372,139.196 22.706 C 139.196 21.011,137.730 19.095,136.432 19.095 C 135.846 19.095,135.902 19.319,136.683 20.101 M71.868 22.487 C 71.872 22.695,73.907 25.642,76.390 29.036 C 81.779 36.403,81.694 34.851,77.010 40.381 C 74.868 42.909,72.805 45.373,72.426 45.856 C 71.774 46.685,72.323 46.734,82.376 46.734 L 93.016 46.734 93.684 45.101 C 95.193 41.412,95.180 41.078,93.593 42.665 C 91.631 44.627,88.070 45.292,80.465 45.117 L 74.310 44.975 78.818 39.703 L 83.325 34.431 81.510 31.914 C 80.513 30.530,78.724 28.114,77.536 26.546 C 76.349 24.978,75.377 23.564,75.377 23.405 C 75.377 23.246,78.437 23.116,82.177 23.116 C 89.417 23.116,91.563 23.603,93.870 25.770 L 95.040 26.869 94.504 25.461 C 93.136 21.863,94.031 22.111,82.394 22.111 C 76.600 22.111,71.863 22.280,71.868 22.487 M162.412 24.221 C 162.080 24.553,161.809 25.048,161.809 25.322 C 161.809 25.596,162.130 25.382,162.522 24.846 C 163.619 23.345,163.924 24.248,163.038 26.371 C 162.461 27.750,162.394 28.424,162.794 28.824 C 163.440 29.470,164.890 28.743,165.229 27.602 C 165.346 27.207,165.095 27.336,164.672 27.889 C 163.521 29.389,163.150 28.508,164.038 26.383 C 165.074 23.901,164.069 22.564,162.412 24.221 M370.729 23.982 C 371.592 24.287,371.491 25.899,370.413 29.020 L 369.501 31.658 370.806 31.651 C 371.611 31.646,371.877 31.495,371.501 31.256 C 370.407 30.561,371.290 28.770,372.602 29.021 C 374.322 29.349,375.980 27.500,375.783 25.473 C 375.630 23.891,375.591 23.869,372.864 23.815 C 371.344 23.785,370.383 23.860,370.729 23.982 M377.926 24.942 C 376.749 26.438,376.601 27.656,377.487 28.543 C 378.414 29.469,378.973 29.258,378.328 28.225 C 377.453 26.823,378.776 24.372,380.409 24.372 C 382.026 24.372,381.996 26.934,380.363 28.266 C 379.771 28.750,379.547 29.146,379.867 29.146 C 380.609 29.146,382.915 26.857,382.915 26.120 C 382.915 23.481,379.677 22.716,377.926 24.942 M384.296 23.982 C 385.160 24.287,385.059 25.899,383.980 29.020 L 383.069 31.658 384.374 31.651 C 385.179 31.646,385.445 31.495,385.069 31.256 C 383.975 30.561,384.857 28.770,386.170 29.021 C 387.889 29.349,389.548 27.500,389.351 25.473 C 389.198 23.891,389.159 23.869,386.432 23.815 C 384.912 23.785,383.951 23.860,384.296 23.982 M374.874 25.410 C 374.874 27.245,373.997 28.643,372.847 28.643 C 371.740 28.643,371.561 27.483,372.349 25.410 C 373.026 23.630,374.874 23.630,374.874 25.410 M388.442 25.410 C 388.442 27.245,387.565 28.643,386.414 28.643 C 385.307 28.643,385.129 27.483,385.917 25.410 C 386.594 23.630,388.442 23.630,388.442 25.410 M29.192 27.070 C 26.114 31.394,26.337 38.963,29.630 41.944 C 30.375 42.617,30.321 42.327,29.344 40.397 C 27.612 36.976,27.630 31.261,29.383 27.964 C 30.791 25.316,30.710 24.938,29.192 27.070 M42.373 27.293 C 44.649 30.665,44.831 36.677,42.781 40.775 L 41.686 42.965 42.890 41.528 C 46.228 37.547,45.877 29.609,42.219 26.382 C 41.160 25.448,41.171 25.513,42.373 27.293 M14.447 26.988 C 15.826 27.253,15.826 27.246,14.538 32.328 C 13.358 36.984,12.442 38.693,11.127 38.693 C 9.817 38.693,9.524 38.215,10.186 37.155 C 10.816 36.146,10.443 35.377,9.581 35.909 C 7.984 36.896,9.742 39.508,11.677 39.023 C 13.961 38.449,14.610 37.455,15.829 32.663 C 16.545 29.849,17.395 27.650,17.912 27.272 C 18.654 26.729,18.376 26.643,16.051 26.702 C 14.547 26.739,13.825 26.868,14.447 26.988 M36.823 27.442 C 37.020 27.640,36.477 28.231,35.614 28.756 C 34.209 29.610,34.073 29.903,34.298 31.585 C 34.481 32.948,34.292 33.778,33.607 34.625 C 31.883 36.753,32.346 38.143,35.176 39.339 C 37.857 40.472,38.698 42.019,36.394 41.578 C 35.567 41.420,35.274 41.505,35.582 41.813 C 36.462 42.693,38.430 42.044,38.604 40.817 C 38.737 39.881,38.346 39.488,36.439 38.645 C 32.604 36.948,32.758 33.668,36.673 33.668 C 37.784 33.668,38.693 33.442,38.693 33.166 C 38.693 32.889,38.028 32.663,37.216 32.663 C 34.217 32.663,35.072 29.122,38.196 28.604 C 39.493 28.389,39.720 28.225,39.070 27.975 C 37.254 27.279,36.474 27.094,36.823 27.442 M221.859 27.908 L 220.352 28.598 221.753 28.621 L 223.153 28.643 223.009 33.270 C 222.870 37.724,222.817 37.910,221.608 38.245 C 220.805 38.468,221.531 38.593,223.618 38.593 C 225.706 38.593,226.431 38.468,225.628 38.245 C 224.400 37.904,224.369 37.775,224.229 32.516 C 224.151 29.557,223.925 27.154,223.727 27.176 C 223.529 27.199,222.688 27.528,221.859 27.908 M286.491 31.370 C 289.080 32.853,288.681 38.191,285.981 38.191 C 283.443 38.191,282.316 34.211,284.249 32.075 C 284.706 31.569,284.836 31.156,284.536 31.156 C 283.676 31.156,281.910 33.691,281.910 34.925 C 281.910 36.853,283.768 38.693,285.715 38.693 C 290.266 38.693,290.881 32.039,286.432 30.930 L 285.176 30.617 286.491 31.370 M272.487 31.702 C 273.221 32.126,273.367 32.953,273.367 36.683 C 273.367 40.413,273.221 41.241,272.487 41.668 C 271.797 42.071,272.093 42.180,273.869 42.180 C 275.646 42.180,275.942 42.071,275.251 41.668 C 274.033 40.959,274.007 37.943,275.223 38.410 C 276.023 38.717,276.023 38.680,275.223 37.796 C 274.014 36.460,274.083 32.923,275.335 32.046 C 276.205 31.437,276.070 31.362,273.953 31.282 C 272.154 31.213,271.813 31.311,272.487 31.702 M277.889 32.161 C 278.512 32.783,278.894 33.836,278.894 34.925 C 278.894 36.013,278.512 37.066,277.889 37.688 C 277.225 38.353,277.110 38.693,277.551 38.693 C 278.760 38.693,280.402 36.432,280.402 34.767 C 280.402 33.071,278.936 31.156,277.638 31.156 C 277.052 31.156,277.108 31.379,277.889 32.161 M291.583 31.702 C 292.316 32.126,292.462 32.953,292.462 36.683 C 292.462 40.413,292.316 41.241,291.583 41.668 C 290.892 42.071,291.189 42.180,292.965 42.180 C 294.741 42.180,295.037 42.071,294.347 41.668 C 293.128 40.959,293.102 37.943,294.319 38.410 C 295.119 38.717,295.119 38.680,294.319 37.796 C 293.109 36.460,293.178 32.923,294.431 32.046 C 295.300 31.437,295.165 31.362,293.049 31.282 C 291.250 31.213,290.908 31.311,291.583 31.702 M296.985 32.161 C 297.607 32.783,297.990 33.836,297.990 34.925 C 297.990 36.013,297.607 37.066,296.985 37.688 C 296.321 38.353,296.206 38.693,296.646 38.693 C 297.855 38.693,299.497 36.432,299.497 34.767 C 299.497 33.071,298.032 31.156,296.734 31.156 C 296.147 31.156,296.203 31.379,296.985 32.161 M53.518 32.663 C 53.694 32.949,56.203 33.166,59.326 33.166 C 62.656 33.166,64.824 32.968,64.824 32.663 C 64.824 32.357,62.553 32.161,59.016 32.161 C 55.271 32.161,53.317 32.339,53.518 32.663 M335.930 32.663 C 336.106 32.949,338.615 33.166,341.738 33.166 C 345.069 33.166,347.236 32.968,347.236 32.663 C 347.236 32.357,344.965 32.161,341.428 32.161 C 337.683 32.161,335.729 32.339,335.930 32.663 M111.558 34.171 C 111.558 34.502,125.879 34.673,153.518 34.673 C 181.156 34.673,195.477 34.502,195.477 34.171 C 195.477 33.840,181.156 33.668,153.518 33.668 C 125.879 33.668,111.558 33.840,111.558 34.171 M310.013 34.045 C 309.993 34.253,310.007 36.042,310.045 38.023 C 310.099 40.889,309.945 41.718,309.287 42.085 C 308.667 42.433,308.940 42.557,310.387 42.585 C 311.445 42.606,312.029 42.511,311.683 42.375 C 311.250 42.204,311.055 40.814,311.055 37.898 C 311.055 34.629,310.248 31.643,310.013 34.045 M327.062 37.750 C 327.201 40.805,327.076 41.940,326.564 42.265 C 326.108 42.553,326.468 42.687,327.638 42.666 C 328.606 42.649,329.114 42.520,328.769 42.381 C 328.336 42.206,328.141 40.811,328.141 37.898 C 328.141 34.836,327.966 33.668,327.509 33.668 C 327.038 33.668,326.924 34.709,327.062 37.750 M355.276 34.171 C 355.276 34.496,361.474 34.673,372.864 34.673 C 384.255 34.673,390.452 34.496,390.452 34.171 C 390.452 33.845,384.255 33.668,372.864 33.668 C 361.474 33.668,355.276 33.845,355.276 34.171 M205.672 34.543 C 207.271 34.643,209.758 34.642,211.199 34.541 C 212.640 34.440,211.332 34.358,208.291 34.359 C 205.251 34.360,204.072 34.443,205.672 34.543 M301.921 38.146 C 302.065 41.652,301.975 42.151,301.168 42.360 C 300.664 42.490,301.269 42.597,302.513 42.597 C 303.756 42.597,304.362 42.490,303.858 42.360 C 303.050 42.151,302.961 41.652,303.104 38.146 C 303.238 34.873,303.133 34.168,302.513 34.168 C 301.892 34.168,301.788 34.873,301.921 38.146 M18.970 36.043 C 19.833 36.348,19.732 37.959,18.654 41.080 L 17.742 43.719 19.047 43.711 C 19.852 43.706,20.118 43.555,19.743 43.316 C 18.649 42.621,19.531 40.830,20.844 41.081 C 22.563 41.410,24.221 39.560,24.025 37.533 C 23.871 35.951,23.833 35.929,21.106 35.875 C 19.585 35.845,18.624 35.920,18.970 36.043 M56.175 36.051 C 57.914 36.149,60.627 36.149,62.206 36.049 C 63.784 35.950,62.362 35.869,59.045 35.870 C 55.729 35.871,54.437 35.953,56.175 36.051 M338.588 36.051 C 340.326 36.149,343.039 36.149,344.618 36.049 C 346.196 35.950,344.774 35.869,341.457 35.870 C 338.141 35.871,336.849 35.953,338.588 36.051 M23.116 37.470 C 23.116 39.305,22.239 40.704,21.088 40.704 C 19.981 40.704,19.802 39.543,20.591 37.470 C 21.267 35.690,23.116 35.690,23.116 37.470 M247.929 37.284 C 247.740 37.590,247.922 38.089,248.334 38.393 C 248.746 38.696,249.215 39.284,249.376 39.698 C 249.538 40.113,249.687 39.742,249.709 38.873 C 249.750 37.259,248.587 36.221,247.929 37.284 M306.359 38.105 C 305.268 39.310,305.304 40.848,306.447 41.882 C 307.616 42.941,308.375 42.977,307.322 41.924 C 305.745 40.347,306.496 38.114,308.794 37.550 C 309.600 37.352,309.540 37.291,308.495 37.244 C 307.778 37.212,306.817 37.599,306.359 38.105 M313.855 37.976 C 312.796 39.035,312.856 40.861,313.984 41.882 C 315.161 42.947,316.771 42.945,317.652 41.879 C 318.283 41.115,318.246 41.104,317.209 41.750 C 315.007 43.122,313.040 39.795,314.934 37.901 C 315.328 37.508,315.424 37.186,315.147 37.186 C 314.871 37.186,314.289 37.541,313.855 37.976 M316.457 37.519 C 316.803 37.658,317.085 38.206,317.085 38.735 C 317.085 39.265,317.312 39.698,317.588 39.698 C 317.864 39.698,318.090 39.405,318.090 39.045 C 318.090 38.242,317.071 37.172,316.357 37.226 C 316.067 37.247,316.112 37.379,316.457 37.519 M319.933 37.521 C 319.453 38.001,319.520 38.693,320.047 38.693 C 320.294 38.693,320.626 38.354,320.785 37.940 C 321.079 37.174,320.543 36.911,319.933 37.521 M322.513 37.789 C 323.441 38.717,323.245 39.088,321.643 39.440 C 319.155 39.986,318.118 42.714,320.398 42.714 C 321.104 42.714,321.128 42.593,320.558 41.905 C 319.840 41.041,320.996 39.698,322.458 39.698 C 323.369 39.698,323.286 41.563,322.352 42.086 C 321.810 42.389,322.103 42.528,323.357 42.564 C 324.330 42.592,325.126 42.397,325.126 42.132 C 325.126 41.866,324.899 41.789,324.623 41.960 C 324.321 42.146,324.121 41.496,324.121 40.331 C 324.121 38.447,323.436 37.186,322.412 37.186 C 322.133 37.186,322.178 37.454,322.513 37.789 M367.085 39.968 L 365.578 40.658 366.979 40.681 L 368.379 40.704 368.235 45.330 C 368.096 49.784,368.044 49.970,366.834 50.305 C 366.032 50.528,366.758 50.654,368.844 50.654 C 370.932 50.654,371.657 50.528,370.854 50.305 C 369.626 49.964,369.595 49.835,369.455 44.576 C 369.377 41.617,369.151 39.214,368.953 39.237 C 368.755 39.259,367.915 39.588,367.085 39.968 M374.673 40.283 C 374.254 40.881,374.028 41.559,374.171 41.790 C 374.611 42.503,375.879 42.255,375.879 41.457 C 375.879 41.043,375.640 40.704,375.347 40.704 C 375.055 40.704,374.955 40.477,375.126 40.201 C 375.296 39.925,376.097 39.698,376.905 39.698 C 379.536 39.698,379.408 43.859,376.760 44.369 C 375.677 44.577,375.674 44.590,376.697 44.655 C 378.260 44.755,378.981 45.910,378.801 48.030 C 378.605 50.347,377.644 51.027,375.645 50.262 C 374.538 49.838,374.331 49.582,374.839 49.268 C 375.226 49.029,375.384 48.482,375.202 48.009 C 374.800 46.961,373.869 47.476,373.869 48.745 C 373.869 51.136,377.712 51.982,379.671 50.023 C 381.242 48.451,381.237 46.994,379.654 45.526 C 378.409 44.373,378.408 44.362,379.402 43.462 C 381.403 41.652,380.093 39.196,377.128 39.196 C 375.961 39.196,375.197 39.534,374.673 40.283 M139.758 43.430 C 142.347 44.913,141.948 50.251,139.247 50.251 C 136.709 50.251,135.582 46.271,137.515 44.135 C 137.972 43.630,138.102 43.216,137.803 43.216 C 136.943 43.216,135.176 45.751,135.176 46.985 C 135.176 48.914,137.034 50.754,138.981 50.754 C 143.532 50.754,144.147 44.099,139.698 42.990 L 138.442 42.677 139.758 43.430 M125.251 43.762 C 125.985 44.187,126.131 45.013,126.131 48.744 C 126.131 52.473,125.985 53.301,125.251 53.729 C 124.561 54.131,124.857 54.241,126.633 54.241 C 128.409 54.241,128.706 54.131,128.015 53.729 C 126.797 53.019,126.770 50.004,127.987 50.470 C 128.787 50.777,128.787 50.740,127.987 49.856 C 126.778 48.520,126.847 44.983,128.099 44.106 C 128.969 43.497,128.834 43.422,126.717 43.342 C 124.918 43.274,124.577 43.371,125.251 43.762 M130.653 44.221 C 131.275 44.843,131.658 45.896,131.658 46.985 C 131.658 48.074,131.275 49.127,130.653 49.749 C 129.989 50.413,129.874 50.754,130.314 50.754 C 131.524 50.754,133.166 48.492,133.166 46.827 C 133.166 45.131,131.700 43.216,130.402 43.216 C 129.816 43.216,129.872 43.439,130.653 44.221 M144.347 43.762 C 145.080 44.187,145.226 45.013,145.226 48.744 C 145.226 52.473,145.080 53.301,144.347 53.729 C 143.656 54.131,143.952 54.241,145.729 54.241 C 147.505 54.241,147.801 54.131,147.111 53.729 C 145.892 53.019,145.866 50.004,147.082 50.470 C 147.882 50.777,147.882 50.740,147.082 49.856 C 145.873 48.520,145.942 44.983,147.195 44.106 C 148.064 43.497,147.929 43.422,145.813 43.342 C 144.014 43.274,143.672 43.371,144.347 43.762 M149.749 44.221 C 150.371 44.843,150.754 45.896,150.754 46.985 C 150.754 48.074,150.371 49.127,149.749 49.749 C 149.085 50.413,148.970 50.754,149.410 50.754 C 150.619 50.754,152.261 48.492,152.261 46.827 C 152.261 45.131,150.795 43.216,149.497 43.216 C 148.911 43.216,148.967 43.439,149.749 44.221 M162.777 46.106 C 162.757 46.313,162.771 48.103,162.809 50.083 C 162.863 52.949,162.709 53.778,162.051 54.146 C 161.431 54.493,161.704 54.617,163.150 54.646 C 164.209 54.666,164.793 54.572,164.447 54.435 C 164.014 54.265,163.819 52.875,163.819 49.958 C 163.819 46.690,163.012 43.704,162.777 46.106 M179.826 49.810 C 179.965 52.866,179.840 54.001,179.327 54.325 C 178.872 54.613,179.232 54.748,180.402 54.727 C 181.369 54.709,181.878 54.580,181.533 54.441 C 181.100 54.266,180.905 52.872,180.905 49.958 C 180.905 46.896,180.730 45.729,180.273 45.729 C 179.802 45.729,179.688 46.769,179.826 49.810 M154.685 50.206 C 154.828 53.712,154.739 54.212,153.931 54.420 C 153.427 54.551,154.033 54.657,155.276 54.657 C 156.520 54.657,157.125 54.551,156.621 54.420 C 155.814 54.212,155.724 53.712,155.868 50.206 C 156.001 46.934,155.897 46.229,155.276 46.229 C 154.656 46.229,154.551 46.934,154.685 50.206 M159.123 50.165 C 158.032 51.371,158.068 52.908,159.210 53.942 C 160.380 55.001,161.139 55.037,160.086 53.984 C 158.509 52.407,159.260 50.175,161.558 49.610 C 162.363 49.412,162.304 49.351,161.259 49.305 C 160.542 49.272,159.581 49.660,159.123 50.165 M166.619 50.036 C 165.560 51.095,165.620 52.922,166.748 53.942 C 167.925 55.007,169.535 55.006,170.416 53.939 C 171.047 53.175,171.010 53.164,169.973 53.810 C 167.770 55.182,165.804 51.856,167.698 49.962 C 168.092 49.568,168.187 49.246,167.911 49.246 C 167.635 49.246,167.053 49.602,166.619 50.036 M169.221 49.579 C 169.567 49.718,169.849 50.266,169.849 50.796 C 169.849 51.325,170.075 51.759,170.352 51.759 C 170.628 51.759,170.854 51.465,170.854 51.106 C 170.854 50.302,169.835 49.232,169.121 49.286 C 168.830 49.308,168.876 49.440,169.221 49.579 M172.697 49.581 C 172.217 50.061,172.284 50.754,172.811 50.754 C 173.057 50.754,173.389 50.415,173.549 50.000 C 173.842 49.234,173.307 48.971,172.697 49.581 M175.276 49.849 C 176.204 50.777,176.009 51.148,174.407 51.500 C 171.919 52.046,170.882 54.774,173.161 54.774 C 173.868 54.774,173.892 54.653,173.322 53.966 C 172.604 53.101,173.760 51.759,175.222 51.759 C 176.133 51.759,176.050 53.624,175.115 54.147 C 174.574 54.449,174.867 54.589,176.120 54.624 C 177.093 54.652,177.889 54.457,177.889 54.192 C 177.889 53.927,177.663 53.849,177.387 54.020 C 177.085 54.207,176.884 53.556,176.884 52.391 C 176.884 50.507,176.200 49.246,175.176 49.246 C 174.897 49.246,174.941 49.514,175.276 49.849 M90.201 51.797 C 89.648 52.014,89.479 52.207,89.824 52.226 C 90.914 52.287,90.675 59.165,89.573 59.453 C 89.089 59.579,89.711 59.682,90.955 59.682 C 92.198 59.682,92.829 59.581,92.356 59.456 C 91.655 59.272,91.470 58.510,91.351 55.317 C 91.215 51.633,91.147 51.426,90.201 51.797 M73.467 54.874 C 73.136 55.206,72.864 55.702,72.864 55.975 C 72.864 56.249,73.185 56.035,73.577 55.499 C 74.674 53.998,74.980 54.902,74.093 57.024 C 73.517 58.403,73.450 59.078,73.849 59.477 C 74.496 60.124,75.945 59.397,76.284 58.256 C 76.401 57.861,76.151 57.990,75.727 58.542 C 74.576 60.042,74.205 59.161,75.093 57.036 C 76.130 54.555,75.124 53.217,73.467 54.874 M77.889 55.276 C 77.889 55.572,79.648 55.779,82.161 55.779 C 84.673 55.779,86.432 55.572,86.432 55.276 C 86.432 54.981,84.673 54.774,82.161 54.774 C 79.648 54.774,77.889 54.981,77.889 55.276 M80.040 58.159 C 81.361 58.263,83.397 58.262,84.563 58.156 C 85.729 58.051,84.648 57.966,82.161 57.967 C 79.673 57.969,78.719 58.055,80.040 58.159 " stroke="none" fill="#000000" fill-rule="evenodd"></path></g></svg>